<?xml version="1.0" encoding="UTF-8" standalone="no"?>
<svg
   xmlns:dc="http://purl.org/dc/elements/1.1/"
   xmlns:cc="http://creativecommons.org/ns#"
   xmlns:rdf="http://www.w3.org/1999/02/22-rdf-syntax-ns#"
   xmlns:svg="http://www.w3.org/2000/svg"
   xmlns="http://www.w3.org/2000/svg"
   xmlns:sodipodi="http://sodipodi.sourceforge.net/DTD/sodipodi-0.dtd"
   xmlns:inkscape="http://www.inkscape.org/namespaces/inkscape"
   version="1.1"
   x="0px"
   y="0px"
   viewBox="0 0 100 125"
   enable-background="new 0 0 100 100"
   xml:space="preserve"
   id="svg2"
   inkscape:version="0.91 r13725"
   sodipodi:docname="BarIcon.svg"><metadata
     id="metadata18"><rdf:RDF><cc:Work
         rdf:about=""><dc:format>image/svg+xml</dc:format><dc:type
           rdf:resource="http://purl.org/dc/dcmitype/StillImage" /><dc:title></dc:title></cc:Work></rdf:RDF></metadata><defs
     id="defs16" /><sodipodi:namedview
     pagecolor="#ffffff"
     bordercolor="#666666"
     borderopacity="1"
     objecttolerance="10"
     gridtolerance="10"
     guidetolerance="10"
     inkscape:pageopacity="0"
     inkscape:pageshadow="2"
     inkscape:window-width="1600"
     inkscape:window-height="838"
     id="namedview14"
     showgrid="false"
     inkscape:zoom="1.888"
     inkscape:cx="50"
     inkscape:cy="62.5"
     inkscape:window-x="-8"
     inkscape:window-y="-8"
     inkscape:window-maximized="1"
     inkscape:current-layer="svg2" /><g
     id="g4"
     style="fill:#3f51b5;fill-opacity:1"><path
       d="M99.045,7.189c1.643-1.596,1.111-2.9-1.176-2.9H2.131c-2.289,0-2.818,1.305-1.176,2.9l42.549,41.334v37.078h-13   c-3.178,0-5.777,2.6-5.777,5.777v1.445v2.887h5.777h38.994h5.775v-2.887v-1.445c0-3.178-2.602-5.777-5.775-5.777H56.5V48.523   L99.045,7.189z M52.914,45.531c-1.602,1.637-4.221,1.637-5.822,0L15.244,12.998c-1.602-1.635-1.039-2.975,1.252-2.975h67.01   c2.287,0,2.852,1.34,1.25,2.975L52.914,45.531z"
       id="path6"
       style="fill:#3f51b5;fill-opacity:1" /><path
       d="M30.242,24.07l2.912,2.975l6.969,7.119l6.967,7.117c1.602,1.637,4.221,1.637,5.82,0.002c0.002,0,0.002-0.002,0.002-0.002   l1.887-1.926L69.758,24.07C61.121,18.131,42.521,30.617,30.242,24.07z"
       id="path8"
       style="fill:#3f51b5;fill-opacity:1" /></g></svg>